{
  "version": "1.1.6",
  "modules": [
    {
      "id": 2,
      "plugin": "Core",
      "version": "1.1.6",
      "model": "Notes",
      "params": [],
      "rightModuleId": 9,
      "text": "B for routing. And J for an expanded phaser kind of thing. And then K is a phase modulation VCO. And some phase organized H.",
      "pos": [
        0,
        1
      ]
    },
    {
      "id": 4,
      "plugin": "Core",
      "version": "1.1.6",
      "model": "AudioInterface",
      "params": [],
      "rightModuleId": 5,
      "data": {
        "audio": {
          "driver": 4,
          "deviceName": "system",
          "offset": 0,
          "maxChannels": 8,
          "sampleRate": 44100,
          "blockSize": 2048
        }
      },
      "pos": [
        35,
        0
      ]
    },
    {
      "id": 5,
      "plugin": "Fundamental",
      "version": "1.4.0",
      "model": "Scope",
      "params": [
        {
          "id": 0,
          "value": 0.0
        },
        {
          "id": 1,
          "value": 0.0
        },
        {
          "id": 2,
          "value": -2.0
        },
        {
          "id": 3,
          "value": 0.0
        },
        {
          "id": 4,
          "value": 11.6900015
        },
        {
          "id": 5,
          "value": 0.0
        },
        {
          "id": 6,
          "value": 3.83999896
        },
        {
          "id": 7,
          "value": 0.0
        }
      ],
      "leftModuleId": 4,
      "rightModuleId": 6,
      "data": {
        "lissajous": 0,
        "external": 0
      },
      "pos": [
        45,
        0
      ]
    },
    {
      "id": 6,
      "plugin": "Fundamental",
      "version": "1.4.0",
      "model": "VCMixer",
      "params": [
        {
          "id": 0,
          "value": 1.0
        },
        {
          "id": 1,
          "value": 0.949088097
        },
        {
          "id": 2,
          "value": 0.0
        },
        {
          "id": 3,
          "value": 1.0
        },
        {
          "id": 4,
          "value": 1.0
        }
      ],
      "leftModuleId": 5,
      "pos": [
        58,
        0
      ]
    },
    {
      "id": 9,
      "plugin": "Core",
      "version": "1.1.6",
      "model": "MIDIToCVInterface",
      "params": [],
      "leftModuleId": 2,
      "rightModuleId": 18,
      "data": {
        "channels": 1,
        "polyMode": 0,
        "clockDivision": 24,
        "lastPitch": 8192,
        "lastMod": 0,
        "midi": {
          "driver": -11,
          "deviceName": "QWERTY keyboard (US)",
          "channel": -1
        }
      },
      "pos": [
        16,
        1
      ]
    },
    {
      "id": 10,
      "plugin": "KRTPluginA",
      "version": "1.23.22",
      "model": "B",
      "params": [
        {
          "id": 0,
          "value": 0.0
        },
        {
          "id": 1,
          "value": 0.0
        },
        {
          "id": 2,
          "value": 0.0
        },
        {
          "id": 3,
          "value": 0.0
        },
        {
          "id": 4,
          "value": 0.0
        },
        {
          "id": 5,
          "value": 0.0
        },
        {
          "id": 6,
          "value": 0.0
        },
        {
          "id": 7,
          "value": 0.0
        },
        {
          "id": 8,
          "value": 0.0
        },
        {
          "id": 9,
          "value": 0.0
        },
        {
          "id": 10,
          "value": 0.0
        },
        {
          "id": 11,
          "value": 0.0
        },
        {
          "id": 12,
          "value": 0.0
        },
        {
          "id": 13,
          "value": 0.0
        },
        {
          "id": 14,
          "value": 0.0
        },
        {
          "id": 15,
          "value": 0.0
        },
        {
          "id": 16,
          "value": 0.0
        },
        {
          "id": 17,
          "value": 0.0
        },
        {
          "id": 18,
          "value": 0.0
        },
        {
          "id": 19,
          "value": 0.0
        },
        {
          "id": 20,
          "value": 0.0
        }
      ],
      "leftModuleId": 11,
      "rightModuleId": 17,
      "data": {
        "save": "FFFFTFFFFFFFFFFFTTFFFFFFFFFFFFFFFFFFFFFFFFFFFFFFFFFFFFFFFFFFFFFFFFFFFFFFFFFFFFFFFFFFFFFFFFFFFFFFFFFFFFFFFFFFFFFFFFFFTTTFFTFFFFFFFFFFFFFFFFFFFFFFFFFFFFFFFFFFFFFFFFFFFFFFFFFFFFFFFFFFFFFFFFFFFFFFFFFFFFFFFFFFFFFFFFFFFFFFFFFFFFFFFFFFFFFFFFFFFFFFFFFFFFFFFFFFFFFFFFFFFFFFFFFFFFFFFFFFFFFFFFFFFFFFFFFFFFFFFFFFFFFFFFFFFFFFFFFFFFFFFFFF",
        "blue": "FFFFFFFFFFFFFFFFFFFFFFFFFFFFFFFFFFFFFFFFFFFFFFFFFFFFFFFFFFFFFFFFFFFFFFFFFFFFFFFFFFFFFFFFFFFFFFFFFFFFFFFFFFFFFFFFFFFFFFFFFFFFFFFFFFFFFFFFFFFFFFFFFFFFFFFFFFFFFFFFFFFFFFFFFFFFFFFFFFFFFFFFFFFFFFFFFFFFFFFFFFFFFFFFFFFFFFFFFFFFFFFFFFFFFFFFFFFFFFFFFFFFFFFFFFFFFFFFFFFFFFFFFFFFFFFFFFFFFFFFFFFFFFFFFFFFFFFFFFFFFFFFFFFFFFFFFFFFFFFFFFFF"
      },
      "pos": [
        19,
        0
      ]
    },
    {
      "id": 11,
      "plugin": "KRTPluginA",
      "version": "1.23.22",
      "model": "O",
      "params": [
        {
          "id": 0,
          "value": -2.00400043
        },
        {
          "id": 1,
          "value": -0.504000187
        },
        {
          "id": 2,
          "value": 1.01399946
        },
        {
          "id": 3,
          "value": 0.0
        },
        {
          "id": 4,
          "value": 0.0
        },
        {
          "id": 5,
          "value": 0.0
        }
      ],
      "leftModuleId": 16,
      "rightModuleId": 10,
      "pos": [
        15,
        0
      ]
    },
    {
      "id": 15,
      "plugin": "Fundamental",
      "version": "1.4.0",
      "model": "VCO",
      "params": [
        {
          "id": 0,
          "value": 1.0
        },
        {
          "id": 1,
          "value": 1.0
        },
        {
          "id": 2,
          "value": 0.0
        },
        {
          "id": 3,
          "value": 0.0
        },
        {
          "id": 4,
          "value": 0.0
        },
        {
          "id": 5,
          "value": 0.5
        },
        {
          "id": 6,
          "value": 0.0
        }
      ],
      "rightModuleId": 16,
      "pos": [
        0,
        0
      ]
    },
    {
      "id": 16,
      "plugin": "KRTPluginA",
      "version": "1.23.22",
      "model": "J",
      "params": [
        {
          "id": 0,
          "value": 0.200000942
        },
        {
          "id": 1,
          "value": 6.09200287
        },
        {
          "id": 2,
          "value": 0.914001107
        },
        {
          "id": 3,
          "value": 57.3000183
        },
        {
          "id": 4,
          "value": -1.53199971
        },
        {
          "id": 5,
          "value": 48.7000008
        }
      ],
      "leftModuleId": 15,
      "rightModuleId": 11,
      "pos": [
        10,
        0
      ]
    },
    {
      "id": 17,
      "plugin": "KRTPluginA",
      "version": "1.23.22",
      "model": "K",
      "params": [
        {
          "id": 0,
          "value": 0.0
        },
        {
          "id": 1,
          "value": -0.992001474
        },
        {
          "id": 2,
          "value": 0.0
        },
        {
          "id": 3,
          "value": -3.0
        },
        {
          "id": 4,
          "value": 81.1000671
        },
        {
          "id": 5,
          "value": 67.9000015
        }
      ],
      "leftModuleId": 10,
      "pos": [
        28,
        0
      ]
    },
    {
      "id": 18,
      "plugin": "Fundamental",
      "version": "1.4.0",
      "model": "LFO",
      "params": [
        {
          "id": 0,
          "value": 0.0
        },
        {
          "id": 1,
          "value": 1.0
        },
        {
          "id": 2,
          "value": -1.75400174
        },
        {
          "id": 3,
          "value": 0.0
        },
        {
          "id": 4,
          "value": 0.0
        },
        {
          "id": 5,
          "value": 0.5
        },
        {
          "id": 6,
          "value": 0.0
        }
      ],
      "leftModuleId": 9,
      "rightModuleId": 20,
      "pos": [
        24,
        1
      ]
    },
    {
      "id": 19,
      "plugin": "KRTPluginA",
      "version": "1.23.22",
      "model": "H",
      "params": [
        {
          "id": 0,
          "value": 63.6999969
        },
        {
          "id": 1,
          "value": 36.8500061
        },
        {
          "id": 2,
          "value": 37.4000053
        },
        {
          "id": 3,
          "value": 26.0000019
        },
        {
          "id": 4,
          "value": 86.4499969
        },
        {
          "id": 5,
          "value": 42.6000252
        },
        {
          "id": 6,
          "value": 49.6500015
        },
        {
          "id": 7,
          "value": 73.2999496
        },
        {
          "id": 8,
          "value": 58.4499931
        }
      ],
      "leftModuleId": 20,
      "rightModuleId": 21,
      "pos": [
        37,
        1
      ]
    },
    {
      "id": 20,
      "plugin": "KRTPluginA",
      "version": "1.23.22",
      "model": "R",
      "params": [
        {
          "id": 0,
          "value": 0.0
        },
        {
          "id": 1,
          "value": 3.76800513
        }
      ],
      "leftModuleId": 18,
      "rightModuleId": 19,
      "pos": [
        34,
        1
      ]
    },
    {
      "id": 21,
      "plugin": "KRTPluginA",
      "version": "1.23.22",
      "model": "H",
      "params": [
        {
          "id": 0,
          "value": 69.7999878
        },
        {
          "id": 1,
          "value": 90.650032
        },
        {
          "id": 2,
          "value": 29.4500008
        },
        {
          "id": 3,
          "value": 35.1499977
        },
        {
          "id": 4,
          "value": 72.8000107
        },
        {
          "id": 5,
          "value": 86.5999985
        },
        {
          "id": 6,
          "value": 74.0000076
        },
        {
          "id": 7,
          "value": 50.0
        },
        {
          "id": 8,
          "value": 26.4500389
        }
      ],
      "leftModuleId": 19,
      "rightModuleId": 22,
      "pos": [
        46,
        1
      ]
    },
    {
      "id": 22,
      "plugin": "KRTPluginA",
      "version": "1.23.22",
      "model": "F",
      "params": [
        {
          "id": 0,
          "value": 0.224000007
        },
        {
          "id": 1,
          "value": 0.821000099
        },
        {
          "id": 2,
          "value": 1.66799974
        },
        {
          "id": 3,
          "value": -1.0
        },
        {
          "id": 4,
          "value": 3.32999945
        },
        {
          "id": 5,
          "value": -1.0
        }
      ],
      "leftModuleId": 21,
      "rightModuleId": 23,
      "pos": [
        55,
        1
      ]
    },
    {
      "id": 23,
      "plugin": "KRTPluginA",
      "version": "1.23.22",
      "model": "J",
      "params": [
        {
          "id": 0,
          "value": -0.972000182
        },
        {
          "id": 1,
          "value": 6.73599625
        },
        {
          "id": 2,
          "value": 1.0
        },
        {
          "id": 3,
          "value": 49.8999786
        },
        {
          "id": 4,
          "value": -1.70400047
        },
        {
          "id": 5,
          "value": 27.1499863
        }
      ],
      "leftModuleId": 22,
      "pos": [
        60,
        1
      ]
    }
  ],
  "cables": [
    {
      "id": 5,
      "outputModuleId": 6,
      "outputId": 0,
      "inputModuleId": 4,
      "inputId": 0,
      "color": "#0c8e15"
    },
    {
      "id": 9,
      "outputModuleId": 6,
      "outputId": 1,
      "inputModuleId": 5,
      "inputId": 0,
      "color": "#0c8e15"
    },
    {
      "id": 11,
      "outputModuleId": 9,
      "outputId": 0,
      "inputModuleId": 11,
      "inputId": 0,
      "color": "#c9b70e"
    },
    {
      "id": 12,
      "outputModuleId": 6,
      "outputId": 0,
      "inputModuleId": 4,
      "inputId": 1,
      "color": "#0c8e15"
    },
    {
      "id": 21,
      "outputModuleId": 6,
      "outputId": 2,
      "inputModuleId": 5,
      "inputId": 1,
      "color": "#c9b70e"
    },
    {
      "id": 8,
      "outputModuleId": 10,
      "outputId": 0,
      "inputModuleId": 6,
      "inputId": 1,
      "color": "#c9b70e"
    },
    {
      "id": 24,
      "outputModuleId": 9,
      "outputId": 0,
      "inputModuleId": 15,
      "inputId": 0,
      "color": "#c9b70e"
    },
    {
      "id": 10,
      "outputModuleId": 11,
      "outputId": 0,
      "inputModuleId": 10,
      "inputId": 1,
      "color": "#0986ad"
    },
    {
      "id": 25,
      "outputModuleId": 15,
      "outputId": 2,
      "inputModuleId": 10,
      "inputId": 0,
      "color": "#0c8e15"
    },
    {
      "id": 26,
      "outputModuleId": 15,
      "outputId": 3,
      "inputModuleId": 16,
      "inputId": 5,
      "color": "#0c8e15"
    },
    {
      "id": 27,
      "outputModuleId": 16,
      "outputId": 1,
      "inputModuleId": 10,
      "inputId": 2,
      "color": "#c91847"
    },
    {
      "id": 28,
      "outputModuleId": 9,
      "outputId": 0,
      "inputModuleId": 17,
      "inputId": 0,
      "color": "#0986ad"
    },
    {
      "id": 29,
      "outputModuleId": 17,
      "outputId": 0,
      "inputModuleId": 10,
      "inputId": 3,
      "color": "#c9b70e"
    },
    {
      "id": 30,
      "outputModuleId": 18,
      "outputId": 1,
      "inputModuleId": 17,
      "inputId": 2,
      "color": "#0c8e15"
    },
    {
      "id": 31,
      "outputModuleId": 18,
      "outputId": 0,
      "inputModuleId": 17,
      "inputId": 3,
      "color": "#c91847"
    },
    {
      "id": 32,
      "outputModuleId": 9,
      "outputId": 0,
      "inputModuleId": 19,
      "inputId": 9,
      "color": "#0986ad"
    },
    {
      "id": 35,
      "outputModuleId": 20,
      "outputId": 0,
      "inputModuleId": 19,
      "inputId": 10,
      "color": "#c91847"
    },
    {
      "id": 36,
      "outputModuleId": 21,
      "outputId": 0,
      "inputModuleId": 20,
      "inputId": 0,
      "color": "#0986ad"
    },
    {
      "id": 37,
      "outputModuleId": 9,
      "outputId": 0,
      "inputModuleId": 21,
      "inputId": 9,
      "color": "#c9b70e"
    },
    {
      "id": 38,
      "outputModuleId": 19,
      "outputId": 0,
      "inputModuleId": 22,
      "inputId": 6,
      "color": "#0c8e15"
    },
    {
      "id": 39,
      "outputModuleId": 9,
      "outputId": 0,
      "inputModuleId": 22,
      "inputId": 2,
      "color": "#c91847"
    },
    {
      "id": 40,
      "outputModuleId": 18,
      "outputId": 2,
      "inputModuleId": 22,
      "inputId": 1,
      "color": "#0986ad"
    },
    {
      "id": 33,
      "outputModuleId": 23,
      "outputId": 1,
      "inputModuleId": 10,
      "inputId": 4,
      "color": "#c9b70e"
    },
    {
      "id": 41,
      "outputModuleId": 22,
      "outputId": 0,
      "inputModuleId": 23,
      "inputId": 5,
      "color": "#c9b70e"
    },
    {
      "id": 42,
      "outputModuleId": 18,
      "outputId": 1,
      "inputModuleId": 23,
      "inputId": 0,
      "color": "#0c8e15"
    }
  ]
}