{
  "version": "1.1.6",
  "modules": [
    {
      "id": 2,
      "plugin": "Core",
      "version": "1.1.6",
      "model": "Notes",
      "params": [],
      "rightModuleId": 9,
      "text": "The D VCA does not quench, but just modulates relative dB on a key press. The filter is used as the D output is spikey on the gibbs. The filter suppresses this.\n\nI'd suggest a sine or triangle for playing with AM on the filter,",
      "pos": [
        1,
        1
      ]
    },
    {
      "id": 3,
      "plugin": "Fundamental",
      "version": "1.4.0",
      "model": "VCO",
      "params": [
        {
          "id": 0,
          "value": 0.0
        },
        {
          "id": 1,
          "value": 0.0
        },
        {
          "id": 2,
          "value": -16.1999893
        },
        {
          "id": 3,
          "value": 0.0
        },
        {
          "id": 4,
          "value": 0.0
        },
        {
          "id": 5,
          "value": 0.5
        },
        {
          "id": 6,
          "value": 0.0
        }
      ],
      "leftModuleId": 11,
      "rightModuleId": 4,
      "pos": [
        26,
        0
      ]
    },
    {
      "id": 4,
      "plugin": "Core",
      "version": "1.1.6",
      "model": "AudioInterface",
      "params": [],
      "leftModuleId": 3,
      "rightModuleId": 5,
      "data": {
        "audio": {
          "driver": 1,
          "deviceName": "default",
          "offset": 0,
          "maxChannels": 8,
          "sampleRate": 44100,
          "blockSize": 4096
        }
      },
      "pos": [
        36,
        0
      ]
    },
    {
      "id": 5,
      "plugin": "Fundamental",
      "version": "1.4.0",
      "model": "Scope",
      "params": [
        {
          "id": 0,
          "value": 0.0
        },
        {
          "id": 1,
          "value": 0.0
        },
        {
          "id": 2,
          "value": 0.0
        },
        {
          "id": 3,
          "value": 0.0
        },
        {
          "id": 4,
          "value": 15.5000105
        },
        {
          "id": 5,
          "value": 0.0
        },
        {
          "id": 6,
          "value": 3.83999896
        },
        {
          "id": 7,
          "value": 0.0
        }
      ],
      "leftModuleId": 4,
      "rightModuleId": 6,
      "data": {
        "lissajous": 0,
        "external": 0
      },
      "pos": [
        46,
        0
      ]
    },
    {
      "id": 6,
      "plugin": "Fundamental",
      "version": "1.4.0",
      "model": "VCMixer",
      "params": [
        {
          "id": 0,
          "value": 1.0
        },
        {
          "id": 1,
          "value": 1.18086779
        },
        {
          "id": 2,
          "value": 0.0
        },
        {
          "id": 3,
          "value": 1.0
        },
        {
          "id": 4,
          "value": 1.0
        }
      ],
      "leftModuleId": 5,
      "pos": [
        59,
        0
      ]
    },
    {
      "id": 9,
      "plugin": "Core",
      "version": "1.1.6",
      "model": "MIDIToCVInterface",
      "params": [],
      "leftModuleId": 2,
      "data": {
        "channels": 1,
        "polyMode": 0,
        "clockDivision": 24,
        "lastPitch": 8192,
        "lastMod": 0,
        "midi": {
          "driver": -11,
          "deviceName": "QWERTY keyboard (US)",
          "channel": -1
        }
      },
      "pos": [
        17,
        1
      ]
    },
    {
      "id": 11,
      "plugin": "KRTPluginA",
      "version": "1.3.4",
      "model": "D",
      "params": [
        {
          "id": 0,
          "value": -8.28299427
        },
        {
          "id": 1,
          "value": 1.96200049
        }
      ],
      "rightModuleId": 3,
      "pos": [
        23,
        0
      ]
    },
    {
      "id": 12,
      "plugin": "Fundamental",
      "version": "1.4.0",
      "model": "ADSR",
      "params": [
        {
          "id": 0,
          "value": 0.217999816
        },
        {
          "id": 1,
          "value": 0.424999893
        },
        {
          "id": 2,
          "value": 0.274999946
        },
        {
          "id": 3,
          "value": 0.717499971
        }
      ],
      "pos": [
        0,
        0
      ]
    },
    {
      "id": 13,
      "plugin": "KRTPluginA",
      "version": "1.3.4",
      "model": "A",
      "params": [
        {
          "id": 0,
          "value": 0.227999881
        },
        {
          "id": 1,
          "value": 0.294
        },
        {
          "id": 2,
          "value": 4.20000029
        },
        {
          "id": 3,
          "value": -2.00399995
        },
        {
          "id": 4,
          "value": 0.0
        },
        {
          "id": 5,
          "value": 0.0
        }
      ],
      "pos": [
        12,
        0
      ]
    }
  ],
  "cables": [
    {
      "id": 5,
      "outputModuleId": 6,
      "outputId": 0,
      "inputModuleId": 4,
      "inputId": 0,
      "color": "#0c8e15"
    },
    {
      "id": 7,
      "outputModuleId": 9,
      "outputId": 0,
      "inputModuleId": 3,
      "inputId": 0,
      "color": "#0986ad"
    },
    {
      "id": 6,
      "outputModuleId": 3,
      "outputId": 2,
      "inputModuleId": 6,
      "inputId": 2,
      "color": "#c91847"
    },
    {
      "id": 1,
      "outputModuleId": 3,
      "outputId": 2,
      "inputModuleId": 11,
      "inputId": 0,
      "color": "#0c8e15"
    },
    {
      "id": 8,
      "outputModuleId": 9,
      "outputId": 1,
      "inputModuleId": 12,
      "inputId": 4,
      "color": "#c9b70e"
    },
    {
      "id": 9,
      "outputModuleId": 12,
      "outputId": 0,
      "inputModuleId": 11,
      "inputId": 1,
      "color": "#0c8e15"
    },
    {
      "id": 10,
      "outputModuleId": 13,
      "outputId": 1,
      "inputModuleId": 6,
      "inputId": 1,
      "color": "#0986ad"
    },
    {
      "id": 11,
      "outputModuleId": 11,
      "outputId": 1,
      "inputModuleId": 13,
      "inputId": 0,
      "color": "#c9b70e"
    },
    {
      "id": 12,
      "outputModuleId": 6,
      "outputId": 2,
      "inputModuleId": 5,
      "inputId": 1,
      "color": "#0c8e15"
    },
    {
      "id": 13,
      "outputModuleId": 6,
      "outputId": 1,
      "inputModuleId": 5,
      "inputId": 0,
      "color": "#0986ad"
    },
    {
      "id": 14,
      "outputModuleId": 9,
      "outputId": 0,
      "inputModuleId": 13,
      "inputId": 1,
      "color": "#c9b70e"
    },
    {
      "id": 15,
      "outputModuleId": 12,
      "outputId": 0,
      "inputModuleId": 13,
      "inputId": 4,
      "color": "#0c8e15"
    }
  ]
}