{
  "version": "1.1.6",
  "modules": [
    {
      "id": 0,
      "plugin": "KRTPluginA",
      "version": "1.23.23",
      "model": "B",
      "params": [
        {
          "id": 0,
          "value": 0.0
        },
        {
          "id": 1,
          "value": 0.0
        },
        {
          "id": 2,
          "value": 0.0
        },
        {
          "id": 3,
          "value": 0.0
        },
        {
          "id": 4,
          "value": 0.0
        },
        {
          "id": 5,
          "value": 0.0
        },
        {
          "id": 6,
          "value": 0.0
        },
        {
          "id": 7,
          "value": 0.0
        },
        {
          "id": 8,
          "value": 0.0
        },
        {
          "id": 9,
          "value": 0.0
        },
        {
          "id": 10,
          "value": 0.0
        },
        {
          "id": 11,
          "value": 0.0
        },
        {
          "id": 12,
          "value": 0.0
        },
        {
          "id": 13,
          "value": 0.0
        },
        {
          "id": 14,
          "value": 0.0
        },
        {
          "id": 15,
          "value": 0.0
        },
        {
          "id": 16,
          "value": 0.0
        },
        {
          "id": 17,
          "value": 0.0
        },
        {
          "id": 18,
          "value": 0.0
        },
        {
          "id": 19,
          "value": 0.0
        },
        {
          "id": 20,
          "value": 0.0
        }
      ],
      "leftModuleId": 4,
      "data": {
        "save": "FTFFFTFFFFFFFFFFFFFFFFFFFFFFFFFFFFFFFFFFFFFFFFFFFFFFFFFFFFFFFFFFFFFFFFFFFFFFFFFFFFFFFFFFFFFFFFFFFFFFFFFFFFFFFFFFFFFFFFFFFFFFFFFFFFFFFFFFFFFFFFFFFFFFFFFFFFFFFFFFFFFFFFFFFFFFFFFFFFFFFFFFFFFFFFFFFFFFFFFFFFFFFFFFFFFFFFFFFFFFFFFFFFFFFFFFFFFFFFFFFFFFFFFFFFFFFFFFFFFFFFFFFFFFFFFFFFFFFFFFFFFFFFFFFFFFFFFFFFFFFFFFFFFFFFFFFFFFFFFFFFFF",
        "blue": "FFFFFFFFFFFFFFFFFFFFFFFFFFFFFFFFFFFFFFFFFFFFFFFFFFFFFFFFFFFFFFFFFFFFFFFFFFFFFFFFFFFFFFFFFFFFFFFFFFFFFFFFFFFFFFFFFFFFFFFFFFFFFFFFFFFFFFFFFFFFFFFFFFFFFFFFFFFFFFFFFFFFFFFFFFFFFFFFFFFFFFFFFFFFFFFFFFFFFFFFFFFFFFFFFFFFFFFFFFFFFFFFFFFFFFFFFFFFFFFFFFFFFFFFFFFFFFFFFFFFFFFFFFFFFFFFFFFFFFFFFFFFFFFFFFFFFFFFFFFFFFFFFFFFFFFFFFFFFFFFFFFF"
      },
      "pos": [
        34,
        0
      ]
    },
    {
      "id": 1,
      "plugin": "Core",
      "version": "1.1.6",
      "model": "AudioInterface",
      "params": [],
      "leftModuleId": 7,
      "data": {
        "audio": {
          "driver": 4,
          "deviceName": "system",
          "offset": 0,
          "maxChannels": 8,
          "sampleRate": 44100,
          "blockSize": 2048
        }
      },
      "pos": [
        59,
        0
      ]
    },
    {
      "id": 2,
      "plugin": "KRTPluginA",
      "version": "1.23.23",
      "model": "H",
      "params": [
        {
          "id": 0,
          "value": 100.0
        },
        {
          "id": 1,
          "value": 33.3333359
        },
        {
          "id": 2,
          "value": 50.0
        },
        {
          "id": 3,
          "value": 78.5500183
        },
        {
          "id": 4,
          "value": 68.566658
        },
        {
          "id": 5,
          "value": 12.5
        },
        {
          "id": 6,
          "value": 10.0
        },
        {
          "id": 7,
          "value": 8.33333397
        },
        {
          "id": 8,
          "value": 6.25
        }
      ],
      "leftModuleId": 6,
      "rightModuleId": 4,
      "pos": [
        20,
        0
      ]
    },
    {
      "id": 3,
      "plugin": "Core",
      "version": "1.1.6",
      "model": "MIDIToCVInterface",
      "params": [],
      "rightModuleId": 5,
      "data": {
        "channels": 1,
        "polyMode": 0,
        "clockDivision": 24,
        "lastPitch": 8192,
        "lastMod": 0,
        "midi": {
          "driver": -11,
          "deviceName": "QWERTY keyboard (US)",
          "channel": -1
        }
      },
      "pos": [
        0,
        0
      ]
    },
    {
      "id": 4,
      "plugin": "KRTPluginA",
      "version": "1.23.23",
      "model": "F",
      "params": [
        {
          "id": 0,
          "value": 0.870999873
        },
        {
          "id": 1,
          "value": 0.931000054
        },
        {
          "id": 2,
          "value": -0.215999588
        },
        {
          "id": 3,
          "value": -1.0
        },
        {
          "id": 4,
          "value": -1.11000001
        },
        {
          "id": 5,
          "value": -1.0
        }
      ],
      "leftModuleId": 2,
      "rightModuleId": 0,
      "pos": [
        29,
        0
      ]
    },
    {
      "id": 5,
      "plugin": "KRTPluginA",
      "version": "1.23.23",
      "model": "H",
      "params": [
        {
          "id": 0,
          "value": 100.0
        },
        {
          "id": 1,
          "value": 33.3333359
        },
        {
          "id": 2,
          "value": 50.0
        },
        {
          "id": 3,
          "value": 25.0
        },
        {
          "id": 4,
          "value": 16.6666679
        },
        {
          "id": 5,
          "value": 32.7499962
        },
        {
          "id": 6,
          "value": 10.0
        },
        {
          "id": 7,
          "value": 8.33333397
        },
        {
          "id": 8,
          "value": 6.25
        }
      ],
      "leftModuleId": 3,
      "rightModuleId": 6,
      "pos": [
        8,
        0
      ]
    },
    {
      "id": 6,
      "plugin": "KRTPluginA",
      "version": "1.23.23",
      "model": "R",
      "params": [
        {
          "id": 0,
          "value": 1.44600141
        },
        {
          "id": 1,
          "value": 0.0
        }
      ],
      "leftModuleId": 5,
      "rightModuleId": 2,
      "pos": [
        17,
        0
      ]
    },
    {
      "id": 7,
      "plugin": "Fundamental",
      "version": "1.4.0",
      "model": "Scope",
      "params": [
        {
          "id": 0,
          "value": 0.0
        },
        {
          "id": 1,
          "value": 0.0
        },
        {
          "id": 2,
          "value": 0.0
        },
        {
          "id": 3,
          "value": 0.0
        },
        {
          "id": 4,
          "value": 14.0
        },
        {
          "id": 5,
          "value": 0.0
        },
        {
          "id": 6,
          "value": 0.0
        },
        {
          "id": 7,
          "value": 0.0
        }
      ],
      "rightModuleId": 1,
      "data": {
        "lissajous": 0,
        "external": 0
      },
      "pos": [
        46,
        0
      ]
    },
    {
      "id": 8,
      "plugin": "Fundamental",
      "version": "1.4.0",
      "model": "LFO2",
      "params": [
        {
          "id": 0,
          "value": 0.0
        },
        {
          "id": 1,
          "value": 1.0
        },
        {
          "id": 2,
          "value": 1.89099991
        },
        {
          "id": 3,
          "value": 1.5
        },
        {
          "id": 4,
          "value": 0.5
        }
      ],
      "rightModuleId": 9,
      "pos": [
        0,
        1
      ]
    },
    {
      "id": 9,
      "plugin": "Fundamental",
      "version": "1.4.0",
      "model": "LFO2",
      "params": [
        {
          "id": 0,
          "value": 0.0
        },
        {
          "id": 1,
          "value": 1.0
        },
        {
          "id": 2,
          "value": 1.0
        },
        {
          "id": 3,
          "value": 1.5
        },
        {
          "id": 4,
          "value": 0.5
        }
      ],
      "leftModuleId": 8,
      "pos": [
        6,
        1
      ]
    }
  ],
  "cables": [
    {
      "id": 0,
      "outputModuleId": 0,
      "outputId": 0,
      "inputModuleId": 1,
      "inputId": 0,
      "color": "#c9b70e"
    },
    {
      "id": 1,
      "outputModuleId": 0,
      "outputId": 0,
      "inputModuleId": 1,
      "inputId": 1,
      "color": "#0c8e15"
    },
    {
      "id": 2,
      "outputModuleId": 2,
      "outputId": 0,
      "inputModuleId": 0,
      "inputId": 0,
      "color": "#c91847"
    },
    {
      "id": 3,
      "outputModuleId": 3,
      "outputId": 0,
      "inputModuleId": 2,
      "inputId": 9,
      "color": "#0986ad"
    },
    {
      "id": 4,
      "outputModuleId": 2,
      "outputId": 0,
      "inputModuleId": 4,
      "inputId": 6,
      "color": "#c9b70e"
    },
    {
      "id": 5,
      "outputModuleId": 4,
      "outputId": 0,
      "inputModuleId": 0,
      "inputId": 1,
      "color": "#0c8e15"
    },
    {
      "id": 6,
      "outputModuleId": 3,
      "outputId": 0,
      "inputModuleId": 4,
      "inputId": 2,
      "color": "#c91847"
    },
    {
      "id": 7,
      "outputModuleId": 3,
      "outputId": 0,
      "inputModuleId": 5,
      "inputId": 9,
      "color": "#0986ad"
    },
    {
      "id": 8,
      "outputModuleId": 5,
      "outputId": 0,
      "inputModuleId": 6,
      "inputId": 1,
      "color": "#c9b70e"
    },
    {
      "id": 9,
      "outputModuleId": 6,
      "outputId": 1,
      "inputModuleId": 2,
      "inputId": 10,
      "color": "#0c8e15"
    },
    {
      "id": 10,
      "outputModuleId": 0,
      "outputId": 0,
      "inputModuleId": 7,
      "inputId": 0,
      "color": "#c91847"
    },
    {
      "id": 11,
      "outputModuleId": 8,
      "outputId": 0,
      "inputModuleId": 4,
      "inputId": 1,
      "color": "#0986ad"
    },
    {
      "id": 12,
      "outputModuleId": 9,
      "outputId": 0,
      "inputModuleId": 4,
      "inputId": 0,
      "color": "#c9b70e"
    },
    {
      "id": 13,
      "outputModuleId": 9,
      "outputId": 0,
      "inputModuleId": 2,
      "inputId": 3,
      "color": "#0c8e15"
    },
    {
      "id": 14,
      "outputModuleId": 8,
      "outputId": 0,
      "inputModuleId": 5,
      "inputId": 5,
      "color": "#c91847"
    }
  ]
}