{
  "version": "1.1.6",
  "modules": [
    {
      "id": 0,
      "plugin": "KRTPluginA",
      "version": "1.8.10",
      "model": "T",
      "params": [
        {
          "id": 0,
          "value": 4.91699934
        },
        {
          "id": 1,
          "value": 9.89999676
        }
      ],
      "leftModuleId": 1,
      "rightModuleId": 3,
      "pos": [
        22,
        0
      ]
    },
    {
      "id": 1,
      "plugin": "Fundamental",
      "version": "1.4.0",
      "model": "SEQ3",
      "params": [
        {
          "id": 0,
          "value": 4.09199572
        },
        {
          "id": 1,
          "value": 0.0
        },
        {
          "id": 2,
          "value": 0.0
        },
        {
          "id": 3,
          "value": 8.0
        },
        {
          "id": 4,
          "value": 0.0
        },
        {
          "id": 5,
          "value": 0.0
        },
        {
          "id": 6,
          "value": 0.0
        },
        {
          "id": 7,
          "value": 0.0
        },
        {
          "id": 8,
          "value": 0.0
        },
        {
          "id": 9,
          "value": 0.0
        },
        {
          "id": 10,
          "value": 0.0
        },
        {
          "id": 11,
          "value": 0.0
        },
        {
          "id": 12,
          "value": 0.0
        },
        {
          "id": 13,
          "value": 0.0
        },
        {
          "id": 14,
          "value": 0.0
        },
        {
          "id": 15,
          "value": 0.0
        },
        {
          "id": 16,
          "value": 0.0
        },
        {
          "id": 17,
          "value": 0.0
        },
        {
          "id": 18,
          "value": 0.0
        },
        {
          "id": 19,
          "value": 0.0
        },
        {
          "id": 20,
          "value": 0.0
        },
        {
          "id": 21,
          "value": 0.0
        },
        {
          "id": 22,
          "value": 0.0
        },
        {
          "id": 23,
          "value": 0.0
        },
        {
          "id": 24,
          "value": 0.0
        },
        {
          "id": 25,
          "value": 0.0
        },
        {
          "id": 26,
          "value": 0.0
        },
        {
          "id": 27,
          "value": 0.0
        },
        {
          "id": 28,
          "value": 0.0
        },
        {
          "id": 29,
          "value": 0.0
        },
        {
          "id": 30,
          "value": 0.0
        },
        {
          "id": 31,
          "value": 0.0
        },
        {
          "id": 32,
          "value": 0.0
        },
        {
          "id": 33,
          "value": 0.0
        },
        {
          "id": 34,
          "value": 0.0
        },
        {
          "id": 35,
          "value": 0.0
        }
      ],
      "rightModuleId": 0,
      "data": {
        "running": true,
        "gates": [
          1,
          1,
          1,
          1,
          1,
          1,
          1,
          1
        ]
      },
      "pos": [
        0,
        0
      ]
    },
    {
      "id": 2,
      "plugin": "Core",
      "version": "1.1.6",
      "model": "Notes",
      "params": [],
      "rightModuleId": 9,
      "text": "Alter the clock on the SEQ-3 for effect. Basically a stretch and shrink in sync with trig.",
      "pos": [
        0,
        1
      ]
    },
    {
      "id": 3,
      "plugin": "Fundamental",
      "version": "1.4.0",
      "model": "VCO",
      "params": [
        {
          "id": 0,
          "value": 0.0
        },
        {
          "id": 1,
          "value": 0.0
        },
        {
          "id": 2,
          "value": -13.283989
        },
        {
          "id": 3,
          "value": 0.0
        },
        {
          "id": 4,
          "value": 0.0
        },
        {
          "id": 5,
          "value": 0.5
        },
        {
          "id": 6,
          "value": 0.0
        }
      ],
      "leftModuleId": 0,
      "rightModuleId": 4,
      "pos": [
        25,
        0
      ]
    },
    {
      "id": 4,
      "plugin": "Core",
      "version": "1.1.6",
      "model": "AudioInterface",
      "params": [],
      "leftModuleId": 3,
      "rightModuleId": 5,
      "data": {
        "audio": {
          "driver": 1,
          "deviceName": "default",
          "offset": 0,
          "maxChannels": 8,
          "sampleRate": 44100,
          "blockSize": 4096
        }
      },
      "pos": [
        35,
        0
      ]
    },
    {
      "id": 5,
      "plugin": "Fundamental",
      "version": "1.4.0",
      "model": "Scope",
      "params": [
        {
          "id": 0,
          "value": 0.0
        },
        {
          "id": 1,
          "value": 0.0
        },
        {
          "id": 2,
          "value": 0.0
        },
        {
          "id": 3,
          "value": 0.0
        },
        {
          "id": 4,
          "value": 15.5000105
        },
        {
          "id": 5,
          "value": 0.0
        },
        {
          "id": 6,
          "value": 3.83999896
        },
        {
          "id": 7,
          "value": 0.0
        }
      ],
      "leftModuleId": 4,
      "rightModuleId": 6,
      "data": {
        "lissajous": 0,
        "external": 0
      },
      "pos": [
        45,
        0
      ]
    },
    {
      "id": 6,
      "plugin": "Fundamental",
      "version": "1.4.0",
      "model": "VCMixer",
      "params": [
        {
          "id": 0,
          "value": 1.0
        },
        {
          "id": 1,
          "value": 0.949088097
        },
        {
          "id": 2,
          "value": 1.013991
        },
        {
          "id": 3,
          "value": 1.0
        },
        {
          "id": 4,
          "value": 1.0
        }
      ],
      "leftModuleId": 5,
      "pos": [
        58,
        0
      ]
    },
    {
      "id": 9,
      "plugin": "Core",
      "version": "1.1.6",
      "model": "MIDIToCVInterface",
      "params": [],
      "leftModuleId": 2,
      "data": {
        "channels": 1,
        "polyMode": 0,
        "clockDivision": 24,
        "lastPitch": 8192,
        "lastMod": 0,
        "midi": {
          "driver": -11,
          "deviceName": "QWERTY keyboard (US)",
          "channel": -1
        }
      },
      "pos": [
        16,
        1
      ]
    }
  ],
  "cables": [
    {
      "id": 0,
      "outputModuleId": 1,
      "outputId": 0,
      "inputModuleId": 0,
      "inputId": 1,
      "color": "#c9b70e"
    },
    {
      "id": 3,
      "outputModuleId": 0,
      "outputId": 1,
      "inputModuleId": 5,
      "inputId": 0,
      "color": "#0986ad"
    },
    {
      "id": 2,
      "outputModuleId": 0,
      "outputId": 1,
      "inputModuleId": 6,
      "inputId": 1,
      "color": "#c91847"
    },
    {
      "id": 5,
      "outputModuleId": 6,
      "outputId": 0,
      "inputModuleId": 4,
      "inputId": 0,
      "color": "#0c8e15"
    },
    {
      "id": 7,
      "outputModuleId": 9,
      "outputId": 0,
      "inputModuleId": 3,
      "inputId": 0,
      "color": "#0986ad"
    },
    {
      "id": 6,
      "outputModuleId": 3,
      "outputId": 2,
      "inputModuleId": 6,
      "inputId": 2,
      "color": "#c91847"
    },
    {
      "id": 4,
      "outputModuleId": 3,
      "outputId": 2,
      "inputModuleId": 5,
      "inputId": 1,
      "color": "#c9b70e"
    },
    {
      "id": 1,
      "outputModuleId": 3,
      "outputId": 2,
      "inputModuleId": 0,
      "inputId": 0,
      "color": "#0c8e15"
    }
  ]
}