{
  "version": "1.1.6",
  "modules": [
    {
      "id": 2,
      "plugin": "Core",
      "version": "1.1.6",
      "model": "Notes",
      "params": [],
      "rightModuleId": 9,
      "text": "The F morph filter.",
      "pos": [
        0,
        1
      ]
    },
    {
      "id": 3,
      "plugin": "Fundamental",
      "version": "1.4.0",
      "model": "VCO",
      "params": [
        {
          "id": 0,
          "value": 0.0
        },
        {
          "id": 1,
          "value": 0.0
        },
        {
          "id": 2,
          "value": 0.323997021
        },
        {
          "id": 3,
          "value": 0.0
        },
        {
          "id": 4,
          "value": 0.0
        },
        {
          "id": 5,
          "value": 0.5
        },
        {
          "id": 6,
          "value": 0.0
        }
      ],
      "rightModuleId": 14,
      "pos": [
        0,
        0
      ]
    },
    {
      "id": 4,
      "plugin": "Core",
      "version": "1.1.6",
      "model": "AudioInterface",
      "params": [],
      "leftModuleId": 15,
      "rightModuleId": 5,
      "data": {
        "audio": {
          "driver": 1,
          "deviceName": "default",
          "offset": 0,
          "maxChannels": 8,
          "sampleRate": 44100,
          "blockSize": 4096
        }
      },
      "pos": [
        35,
        0
      ]
    },
    {
      "id": 5,
      "plugin": "Fundamental",
      "version": "1.4.0",
      "model": "Scope",
      "params": [
        {
          "id": 0,
          "value": -0.0
        },
        {
          "id": 1,
          "value": 0.0
        },
        {
          "id": 2,
          "value": 0.0
        },
        {
          "id": 3,
          "value": 0.0
        },
        {
          "id": 4,
          "value": 15.5000105
        },
        {
          "id": 5,
          "value": 0.0
        },
        {
          "id": 6,
          "value": 3.83999896
        },
        {
          "id": 7,
          "value": 0.0
        }
      ],
      "leftModuleId": 4,
      "rightModuleId": 6,
      "data": {
        "lissajous": 0,
        "external": 0
      },
      "pos": [
        45,
        0
      ]
    },
    {
      "id": 6,
      "plugin": "Fundamental",
      "version": "1.4.0",
      "model": "VCMixer",
      "params": [
        {
          "id": 0,
          "value": 1.0
        },
        {
          "id": 1,
          "value": 1.0238899
        },
        {
          "id": 2,
          "value": 1.013991
        },
        {
          "id": 3,
          "value": 1.0
        },
        {
          "id": 4,
          "value": 1.0
        }
      ],
      "leftModuleId": 5,
      "pos": [
        58,
        0
      ]
    },
    {
      "id": 9,
      "plugin": "Core",
      "version": "1.1.6",
      "model": "MIDIToCVInterface",
      "params": [],
      "leftModuleId": 2,
      "data": {
        "channels": 1,
        "polyMode": 0,
        "clockDivision": 24,
        "lastPitch": 8192,
        "lastMod": 0,
        "midi": {
          "driver": -11,
          "deviceName": "QWERTY keyboard (US)",
          "channel": -1
        }
      },
      "pos": [
        16,
        1
      ]
    },
    {
      "id": 14,
      "plugin": "KRTPluginA",
      "version": "1.9.14",
      "model": "F",
      "params": [
        {
          "id": 0,
          "value": 0.201999754
        },
        {
          "id": 1,
          "value": -0.182000458
        },
        {
          "id": 2,
          "value": 1.45599639
        },
        {
          "id": 3,
          "value": -1.0
        },
        {
          "id": 4,
          "value": 0.804000497
        },
        {
          "id": 5,
          "value": -1.0
        }
      ],
      "leftModuleId": 3,
      "rightModuleId": 17,
      "pos": [
        10,
        0
      ]
    },
    {
      "id": 15,
      "plugin": "Fundamental",
      "version": "1.4.0",
      "model": "LFO2",
      "params": [
        {
          "id": 0,
          "value": 1.0
        },
        {
          "id": 1,
          "value": 1.0
        },
        {
          "id": 2,
          "value": 2.99799919
        },
        {
          "id": 3,
          "value": 1.5
        },
        {
          "id": 4,
          "value": 0.5
        }
      ],
      "leftModuleId": 16,
      "rightModuleId": 4,
      "pos": [
        29,
        0
      ]
    },
    {
      "id": 16,
      "plugin": "Fundamental",
      "version": "1.4.0",
      "model": "LFO2",
      "params": [
        {
          "id": 0,
          "value": 1.0
        },
        {
          "id": 1,
          "value": 1.0
        },
        {
          "id": 2,
          "value": 0.216999158
        },
        {
          "id": 3,
          "value": 1.5
        },
        {
          "id": 4,
          "value": 0.5
        }
      ],
      "rightModuleId": 15,
      "pos": [
        23,
        0
      ]
    },
    {
      "id": 17,
      "plugin": "KRTPluginA",
      "version": "1.9.14",
      "model": "R",
      "params": [
        {
          "id": 0,
          "value": 0.0
        },
        {
          "id": 1,
          "value": 4.81199932
        }
      ],
      "leftModuleId": 14,
      "pos": [
        15,
        0
      ]
    },
    {
      "id": 18,
      "plugin": "KRTPluginA",
      "version": "1.9.14",
      "model": "R",
      "params": [
        {
          "id": 0,
          "value": 0.0
        },
        {
          "id": 1,
          "value": 3.89400101
        }
      ],
      "pos": [
        19,
        0
      ]
    }
  ],
  "cables": [
    {
      "id": 37,
      "outputModuleId": 3,
      "outputId": 2,
      "inputModuleId": 14,
      "inputId": 6,
      "color": "#c9b70e"
    },
    {
      "id": 38,
      "outputModuleId": 14,
      "outputId": 0,
      "inputModuleId": 6,
      "inputId": 1,
      "color": "#0c8e15"
    },
    {
      "id": 39,
      "outputModuleId": 6,
      "outputId": 1,
      "inputModuleId": 5,
      "inputId": 0,
      "color": "#c91847"
    },
    {
      "id": 40,
      "outputModuleId": 9,
      "outputId": 0,
      "inputModuleId": 3,
      "inputId": 0,
      "color": "#0986ad"
    },
    {
      "id": 41,
      "outputModuleId": 9,
      "outputId": 0,
      "inputModuleId": 14,
      "inputId": 2,
      "color": "#c9b70e"
    },
    {
      "id": 42,
      "outputModuleId": 6,
      "outputId": 0,
      "inputModuleId": 4,
      "inputId": 0,
      "color": "#0c8e15"
    },
    {
      "id": 43,
      "outputModuleId": 6,
      "outputId": 0,
      "inputModuleId": 4,
      "inputId": 1,
      "color": "#c91847"
    },
    {
      "id": 45,
      "outputModuleId": 16,
      "outputId": 0,
      "inputModuleId": 17,
      "inputId": 0,
      "color": "#c9b70e"
    },
    {
      "id": 46,
      "outputModuleId": 17,
      "outputId": 0,
      "inputModuleId": 14,
      "inputId": 0,
      "color": "#0c8e15"
    },
    {
      "id": 44,
      "outputModuleId": 15,
      "outputId": 0,
      "inputModuleId": 18,
      "inputId": 0,
      "color": "#0986ad"
    },
    {
      "id": 47,
      "outputModuleId": 18,
      "outputId": 0,
      "inputModuleId": 14,
      "inputId": 1,
      "color": "#c91847"
    }
  ]
}