{
  "version": "1.1.6",
  "modules": [
    {
      "id": 2,
      "plugin": "Core",
      "version": "1.1.6",
      "model": "Notes",
      "params": [],
      "rightModuleId": 9,
      "text": "The Q quantum gravimitator.",
      "pos": [
        0,
        1
      ]
    },
    {
      "id": 4,
      "plugin": "Core",
      "version": "1.1.6",
      "model": "AudioInterface",
      "params": [],
      "leftModuleId": 36,
      "rightModuleId": 5,
      "data": {
        "audio": {
          "driver": 4,
          "deviceName": "system",
          "offset": 0,
          "maxChannels": 8,
          "sampleRate": 44100,
          "blockSize": 2048
        }
      },
      "pos": [
        40,
        0
      ]
    },
    {
      "id": 5,
      "plugin": "Fundamental",
      "version": "1.4.0",
      "model": "Scope",
      "params": [
        {
          "id": 0,
          "value": 0.0
        },
        {
          "id": 1,
          "value": 0.0
        },
        {
          "id": 2,
          "value": -0.0
        },
        {
          "id": 3,
          "value": 0.0
        },
        {
          "id": 4,
          "value": 16.0
        },
        {
          "id": 5,
          "value": 0.0
        },
        {
          "id": 6,
          "value": 0.0
        },
        {
          "id": 7,
          "value": 0.0
        }
      ],
      "leftModuleId": 4,
      "data": {
        "lissajous": 0,
        "external": 0
      },
      "pos": [
        50,
        0
      ]
    },
    {
      "id": 9,
      "plugin": "Core",
      "version": "1.1.6",
      "model": "MIDIToCVInterface",
      "params": [],
      "leftModuleId": 2,
      "data": {
        "channels": 1,
        "polyMode": 0,
        "clockDivision": 24,
        "lastPitch": 8192,
        "lastMod": 0,
        "midi": {
          "driver": -11,
          "deviceName": "QWERTY keyboard (US)",
          "channel": -1
        }
      },
      "pos": [
        16,
        1
      ]
    },
    {
      "id": 29,
      "plugin": "KRTPluginA",
      "version": "1.18.21",
      "model": "Q",
      "params": [
        {
          "id": 0,
          "value": -0.0839971155
        },
        {
          "id": 1,
          "value": 1.68000138
        },
        {
          "id": 2,
          "value": 1.10200047
        },
        {
          "id": 3,
          "value": 1.45100021
        },
        {
          "id": 4,
          "value": 2.93199921
        },
        {
          "id": 5,
          "value": 0.565999985
        }
      ],
      "leftModuleId": 31,
      "rightModuleId": 33,
      "pos": [
        4,
        0
      ]
    },
    {
      "id": 31,
      "plugin": "KRTPluginA",
      "version": "1.18.21",
      "model": "O",
      "params": [
        {
          "id": 0,
          "value": -2.0279994
        },
        {
          "id": 1,
          "value": -1.02000022
        },
        {
          "id": 2,
          "value": 1.96399975
        },
        {
          "id": 3,
          "value": 70.6999969
        },
        {
          "id": 4,
          "value": 69.2000427
        },
        {
          "id": 5,
          "value": 58.7000275
        }
      ],
      "rightModuleId": 29,
      "pos": [
        0,
        0
      ]
    },
    {
      "id": 33,
      "plugin": "Fundamental",
      "version": "1.4.0",
      "model": "LFO",
      "params": [
        {
          "id": 0,
          "value": 1.0
        },
        {
          "id": 1,
          "value": 1.0
        },
        {
          "id": 2,
          "value": 0.442000359
        },
        {
          "id": 3,
          "value": 0.0
        },
        {
          "id": 4,
          "value": 0.0
        },
        {
          "id": 5,
          "value": 0.5
        },
        {
          "id": 6,
          "value": 0.0
        }
      ],
      "leftModuleId": 29,
      "pos": [
        9,
        0
      ]
    },
    {
      "id": 34,
      "plugin": "KRTPluginA",
      "version": "1.18.21",
      "model": "C",
      "params": [
        {
          "id": 0,
          "value": 3.16799831
        },
        {
          "id": 1,
          "value": 1.52999973
        },
        {
          "id": 2,
          "value": 0.0
        },
        {
          "id": 3,
          "value": 0.0
        },
        {
          "id": 4,
          "value": 3.54599786
        },
        {
          "id": 5,
          "value": -1.78200006
        }
      ],
      "leftModuleId": 35,
      "rightModuleId": 36,
      "pos": [
        30,
        0
      ]
    },
    {
      "id": 35,
      "plugin": "Fundamental",
      "version": "1.4.0",
      "model": "LFO",
      "params": [
        {
          "id": 0,
          "value": 1.0
        },
        {
          "id": 1,
          "value": 1.0
        },
        {
          "id": 2,
          "value": -0.863000214
        },
        {
          "id": 3,
          "value": 0.0
        },
        {
          "id": 4,
          "value": 0.0
        },
        {
          "id": 5,
          "value": 0.5
        },
        {
          "id": 6,
          "value": 0.0
        }
      ],
      "rightModuleId": 34,
      "pos": [
        20,
        0
      ]
    },
    {
      "id": 36,
      "plugin": "KRTPluginA",
      "version": "1.18.21",
      "model": "C",
      "params": [
        {
          "id": 0,
          "value": 0.0
        },
        {
          "id": 1,
          "value": 0.0
        },
        {
          "id": 2,
          "value": 1.98000038
        },
        {
          "id": 3,
          "value": -3.11399889
        },
        {
          "id": 4,
          "value": 2.78999925
        },
        {
          "id": 5,
          "value": -3.36599994
        }
      ],
      "leftModuleId": 34,
      "rightModuleId": 4,
      "pos": [
        35,
        0
      ]
    }
  ],
  "cables": [
    {
      "id": 86,
      "outputModuleId": 9,
      "outputId": 0,
      "inputModuleId": 29,
      "inputId": 1,
      "color": "#c91847"
    },
    {
      "id": 88,
      "outputModuleId": 9,
      "outputId": 0,
      "inputModuleId": 31,
      "inputId": 0,
      "color": "#c9b70e"
    },
    {
      "id": 100,
      "outputModuleId": 34,
      "outputId": 2,
      "inputModuleId": 29,
      "inputId": 6,
      "color": "#c9b70e"
    },
    {
      "id": 89,
      "outputModuleId": 31,
      "outputId": 0,
      "inputModuleId": 29,
      "inputId": 0,
      "color": "#0c8e15"
    },
    {
      "id": 84,
      "outputModuleId": 29,
      "outputId": 0,
      "inputModuleId": 34,
      "inputId": 0,
      "color": "#c91847"
    },
    {
      "id": 109,
      "outputModuleId": 36,
      "outputId": 3,
      "inputModuleId": 4,
      "inputId": 1,
      "color": "#c9b70e"
    },
    {
      "id": 108,
      "outputModuleId": 36,
      "outputId": 3,
      "inputModuleId": 4,
      "inputId": 0,
      "color": "#0986ad"
    },
    {
      "id": 110,
      "outputModuleId": 34,
      "outputId": 3,
      "inputModuleId": 36,
      "inputId": 3,
      "color": "#0c8e15"
    },
    {
      "id": 111,
      "outputModuleId": 36,
      "outputId": 3,
      "inputModuleId": 5,
      "inputId": 0,
      "color": "#c91847"
    },
    {
      "id": 113,
      "outputModuleId": 35,
      "outputId": 2,
      "inputModuleId": 36,
      "inputId": 2,
      "color": "#c9b70e"
    },
    {
      "id": 114,
      "outputModuleId": 36,
      "outputId": 2,
      "inputModuleId": 29,
      "inputId": 2,
      "color": "#0c8e15"
    },
    {
      "id": 91,
      "outputModuleId": 35,
      "outputId": 0,
      "inputModuleId": 34,
      "inputId": 2,
      "color": "#0986ad"
    },
    {
      "id": 115,
      "outputModuleId": 33,
      "outputId": 2,
      "inputModuleId": 36,
      "inputId": 1,
      "color": "#c91847"
    },
    {
      "id": 116,
      "outputModuleId": 36,
      "outputId": 1,
      "inputModuleId": 29,
      "inputId": 3,
      "color": "#0986ad"
    },
    {
      "id": 117,
      "outputModuleId": 33,
      "outputId": 0,
      "inputModuleId": 34,
      "inputId": 1,
      "color": "#c91847"
    },
    {
      "id": 119,
      "outputModuleId": 34,
      "outputId": 1,
      "inputModuleId": 29,
      "inputId": 4,
      "color": "#0c8e15"
    }
  ]
}