{
  "version": "1.1.6",
  "modules": [
    {
      "id": 2,
      "plugin": "Core",
      "version": "1.1.6",
      "model": "Notes",
      "params": [],
      "rightModuleId": 9,
      "text": "The S and E test.",
      "pos": [
        0,
        1
      ]
    },
    {
      "id": 4,
      "plugin": "Core",
      "version": "1.1.6",
      "model": "AudioInterface",
      "params": [],
      "rightModuleId": 5,
      "data": {
        "audio": {
          "driver": 4,
          "deviceName": "system",
          "offset": 0,
          "maxChannels": 8,
          "sampleRate": 44100,
          "blockSize": 2048
        }
      },
      "pos": [
        35,
        0
      ]
    },
    {
      "id": 5,
      "plugin": "Fundamental",
      "version": "1.4.0",
      "model": "Scope",
      "params": [
        {
          "id": 0,
          "value": -0.0
        },
        {
          "id": 1,
          "value": 0.0
        },
        {
          "id": 2,
          "value": 0.0
        },
        {
          "id": 3,
          "value": 0.0
        },
        {
          "id": 4,
          "value": 14.7650156
        },
        {
          "id": 5,
          "value": 0.0
        },
        {
          "id": 6,
          "value": -5.67000103
        },
        {
          "id": 7,
          "value": 0.0
        }
      ],
      "leftModuleId": 4,
      "rightModuleId": 6,
      "data": {
        "lissajous": 0,
        "external": 0
      },
      "pos": [
        45,
        0
      ]
    },
    {
      "id": 6,
      "plugin": "Fundamental",
      "version": "1.4.0",
      "model": "VCMixer",
      "params": [
        {
          "id": 0,
          "value": 1.0
        },
        {
          "id": 1,
          "value": 1.06207395
        },
        {
          "id": 2,
          "value": 0.00424264045
        },
        {
          "id": 3,
          "value": 1.0
        },
        {
          "id": 4,
          "value": 1.0
        }
      ],
      "leftModuleId": 5,
      "pos": [
        58,
        0
      ]
    },
    {
      "id": 9,
      "plugin": "Core",
      "version": "1.1.6",
      "model": "MIDIToCVInterface",
      "params": [],
      "leftModuleId": 2,
      "data": {
        "channels": 1,
        "polyMode": 0,
        "clockDivision": 24,
        "lastPitch": 8192,
        "lastMod": 0,
        "midi": {
          "driver": -11,
          "deviceName": "QWERTY keyboard (US)",
          "channel": -1
        }
      },
      "pos": [
        16,
        1
      ]
    },
    {
      "id": 19,
      "plugin": "KRTPluginA",
      "version": "1.14.19",
      "model": "O",
      "params": [
        {
          "id": 0,
          "value": 0.0
        },
        {
          "id": 1,
          "value": 0.160000131
        },
        {
          "id": 2,
          "value": 0.185999975
        },
        {
          "id": 3,
          "value": 0.0
        },
        {
          "id": 4,
          "value": 19.9499931
        },
        {
          "id": 5,
          "value": 28.9500008
        }
      ],
      "leftModuleId": 22,
      "rightModuleId": 23,
      "pos": [
        14,
        0
      ]
    },
    {
      "id": 20,
      "plugin": "KRTPluginA",
      "version": "1.14.19",
      "model": "S",
      "params": [
        {
          "id": 0,
          "value": 120.0
        },
        {
          "id": 1,
          "value": 1.0
        },
        {
          "id": 2,
          "value": 0.0
        }
      ],
      "rightModuleId": 21,
      "pos": [
        3,
        0
      ]
    },
    {
      "id": 21,
      "plugin": "KRTPluginA",
      "version": "1.14.19",
      "model": "E",
      "params": [
        {
          "id": 0,
          "value": -19.5840073
        },
        {
          "id": 1,
          "value": -0.846000254
        },
        {
          "id": 2,
          "value": 4.30800104
        }
      ],
      "leftModuleId": 20,
      "rightModuleId": 22,
      "pos": [
        6,
        0
      ]
    },
    {
      "id": 22,
      "plugin": "KRTPluginA",
      "version": "1.14.19",
      "model": "F",
      "params": [
        {
          "id": 0,
          "value": 0.360999972
        },
        {
          "id": 1,
          "value": 0.55399996
        },
        {
          "id": 2,
          "value": 1.69199884
        },
        {
          "id": 3,
          "value": -0.627999961
        },
        {
          "id": 4,
          "value": -4.12199926
        },
        {
          "id": 5,
          "value": -0.829000175
        }
      ],
      "leftModuleId": 21,
      "rightModuleId": 19,
      "pos": [
        9,
        0
      ]
    },
    {
      "id": 23,
      "plugin": "KRTPluginA",
      "version": "1.14.19",
      "model": "R",
      "params": [
        {
          "id": 0,
          "value": 4.55399847
        },
        {
          "id": 1,
          "value": 3.79799819
        }
      ],
      "leftModuleId": 19,
      "pos": [
        18,
        0
      ]
    }
  ],
  "cables": [
    {
      "id": 39,
      "outputModuleId": 6,
      "outputId": 1,
      "inputModuleId": 5,
      "inputId": 0,
      "color": "#c91847"
    },
    {
      "id": 42,
      "outputModuleId": 6,
      "outputId": 0,
      "inputModuleId": 4,
      "inputId": 0,
      "color": "#0c8e15"
    },
    {
      "id": 43,
      "outputModuleId": 6,
      "outputId": 0,
      "inputModuleId": 4,
      "inputId": 1,
      "color": "#c91847"
    },
    {
      "id": 49,
      "outputModuleId": 9,
      "outputId": 0,
      "inputModuleId": 19,
      "inputId": 0,
      "color": "#c9b70e"
    },
    {
      "id": 50,
      "outputModuleId": 20,
      "outputId": 0,
      "inputModuleId": 6,
      "inputId": 2,
      "color": "#0c8e15"
    },
    {
      "id": 51,
      "outputModuleId": 9,
      "outputId": 9,
      "inputModuleId": 20,
      "inputId": 1,
      "color": "#c91847"
    },
    {
      "id": 52,
      "outputModuleId": 9,
      "outputId": 10,
      "inputModuleId": 20,
      "inputId": 2,
      "color": "#0986ad"
    },
    {
      "id": 53,
      "outputModuleId": 9,
      "outputId": 11,
      "inputModuleId": 20,
      "inputId": 3,
      "color": "#c9b70e"
    },
    {
      "id": 54,
      "outputModuleId": 9,
      "outputId": 7,
      "inputModuleId": 20,
      "inputId": 0,
      "color": "#0c8e15"
    },
    {
      "id": 55,
      "outputModuleId": 6,
      "outputId": 2,
      "inputModuleId": 5,
      "inputId": 1,
      "color": "#c91847"
    },
    {
      "id": 57,
      "outputModuleId": 21,
      "outputId": 1,
      "inputModuleId": 6,
      "inputId": 1,
      "color": "#c9b70e"
    },
    {
      "id": 58,
      "outputModuleId": 9,
      "outputId": 1,
      "inputModuleId": 21,
      "inputId": 1,
      "color": "#0c8e15"
    },
    {
      "id": 56,
      "outputModuleId": 22,
      "outputId": 0,
      "inputModuleId": 21,
      "inputId": 0,
      "color": "#0986ad"
    },
    {
      "id": 59,
      "outputModuleId": 19,
      "outputId": 0,
      "inputModuleId": 22,
      "inputId": 6,
      "color": "#c91847"
    },
    {
      "id": 60,
      "outputModuleId": 21,
      "outputId": 0,
      "inputModuleId": 22,
      "inputId": 1,
      "color": "#0986ad"
    },
    {
      "id": 62,
      "outputModuleId": 21,
      "outputId": 0,
      "inputModuleId": 22,
      "inputId": 3,
      "color": "#0986ad"
    },
    {
      "id": 61,
      "outputModuleId": 9,
      "outputId": 0,
      "inputModuleId": 23,
      "inputId": 0,
      "color": "#c9b70e"
    },
    {
      "id": 63,
      "outputModuleId": 23,
      "outputId": 1,
      "inputModuleId": 22,
      "inputId": 2,
      "color": "#c9b70e"
    },
    {
      "id": 64,
      "outputModuleId": 21,
      "outputId": 0,
      "inputModuleId": 23,
      "inputId": 1,
      "color": "#0c8e15"
    },
    {
      "id": 66,
      "outputModuleId": 23,
      "outputId": 0,
      "inputModuleId": 22,
      "inputId": 0,
      "color": "#0986ad"
    }
  ]
}