{
  "version": "1.1.6",
  "modules": [
    {
      "id": 2,
      "plugin": "Core",
      "version": "1.1.6",
      "model": "Notes",
      "params": [],
      "rightModuleId": 9,
      "text": "The S and E test.",
      "pos": [
        0,
        1
      ]
    },
    {
      "id": 4,
      "plugin": "Core",
      "version": "1.1.6",
      "model": "AudioInterface",
      "params": [],
      "rightModuleId": 5,
      "data": {
        "audio": {
          "driver": 4,
          "deviceName": "system",
          "offset": 0,
          "maxChannels": 8,
          "sampleRate": 44100,
          "blockSize": 2048
        }
      },
      "pos": [
        35,
        0
      ]
    },
    {
      "id": 5,
      "plugin": "Fundamental",
      "version": "1.4.0",
      "model": "Scope",
      "params": [
        {
          "id": 0,
          "value": -0.0
        },
        {
          "id": 1,
          "value": 0.0
        },
        {
          "id": 2,
          "value": 0.0
        },
        {
          "id": 3,
          "value": 0.0
        },
        {
          "id": 4,
          "value": 14.7650156
        },
        {
          "id": 5,
          "value": 0.0
        },
        {
          "id": 6,
          "value": -5.67000103
        },
        {
          "id": 7,
          "value": 0.0
        }
      ],
      "leftModuleId": 4,
      "rightModuleId": 6,
      "data": {
        "lissajous": 0,
        "external": 0
      },
      "pos": [
        45,
        0
      ]
    },
    {
      "id": 6,
      "plugin": "Fundamental",
      "version": "1.4.0",
      "model": "VCMixer",
      "params": [
        {
          "id": 0,
          "value": 1.0
        },
        {
          "id": 1,
          "value": 1.0238899
        },
        {
          "id": 2,
          "value": 1.013991
        },
        {
          "id": 3,
          "value": 1.0
        },
        {
          "id": 4,
          "value": 1.0
        }
      ],
      "leftModuleId": 5,
      "pos": [
        58,
        0
      ]
    },
    {
      "id": 9,
      "plugin": "Core",
      "version": "1.1.6",
      "model": "MIDIToCVInterface",
      "params": [],
      "leftModuleId": 2,
      "data": {
        "channels": 1,
        "polyMode": 0,
        "clockDivision": 24,
        "lastPitch": 8192,
        "lastMod": 0,
        "midi": {
          "driver": -11,
          "deviceName": "QWERTY keyboard (US)",
          "channel": -1
        }
      },
      "pos": [
        16,
        1
      ]
    },
    {
      "id": 19,
      "plugin": "KRTPluginA",
      "version": "1.14.19",
      "model": "O",
      "params": [
        {
          "id": 0,
          "value": 0.0
        },
        {
          "id": 1,
          "value": 0.160000131
        },
        {
          "id": 2,
          "value": 0.185999975
        },
        {
          "id": 3,
          "value": 0.0
        },
        {
          "id": 4,
          "value": 19.9499931
        },
        {
          "id": 5,
          "value": 28.9500008
        }
      ],
      "pos": [
        22,
        0
      ]
    },
    {
      "id": 20,
      "plugin": "KRTPluginA",
      "version": "1.14.19",
      "model": "S",
      "params": [
        {
          "id": 0,
          "value": 120.0
        },
        {
          "id": 1,
          "value": 1.0
        }
      ],
      "pos": [
        3,
        0
      ]
    },
    {
      "id": 21,
      "plugin": "KRTPluginA",
      "version": "1.14.19",
      "model": "E",
      "params": [
        {
          "id": 0,
          "value": -9.0
        },
        {
          "id": 1,
          "value": -9.0
        },
        {
          "id": 2,
          "value": 0.0
        }
      ],
      "pos": [
        10,
        0
      ]
    }
  ],
  "cables": [
    {
      "id": 39,
      "outputModuleId": 6,
      "outputId": 1,
      "inputModuleId": 5,
      "inputId": 0,
      "color": "#c91847"
    },
    {
      "id": 42,
      "outputModuleId": 6,
      "outputId": 0,
      "inputModuleId": 4,
      "inputId": 0,
      "color": "#0c8e15"
    },
    {
      "id": 43,
      "outputModuleId": 6,
      "outputId": 0,
      "inputModuleId": 4,
      "inputId": 1,
      "color": "#c91847"
    },
    {
      "id": 48,
      "outputModuleId": 19,
      "outputId": 0,
      "inputModuleId": 6,
      "inputId": 1,
      "color": "#0986ad"
    },
    {
      "id": 49,
      "outputModuleId": 9,
      "outputId": 0,
      "inputModuleId": 19,
      "inputId": 0,
      "color": "#c9b70e"
    }
  ]
}